<svg width="24" height="24" viewBox="0 0 24 24" fill="none" xmlns="http://www.w3.org/2000/svg">
<path d="M22.6752 4.5727e-10H1.3152C0.965507 0.00253407 0.631 0.143229 0.384625 0.391403C0.138249 0.639577 -9.18108e-06 0.975098 4.57271e-10 1.3248V22.6848C0.00253407 23.0345 0.143229 23.369 0.391403 23.6154C0.639577 23.8618 0.975098 24 1.3248 24H12.8208V14.7192H9.7008V11.0856H12.8208V8.4144C12.8208 5.316 14.7144 3.6144 17.4792 3.6144C18.4124 3.61043 19.345 3.6585 20.2728 3.7584V7.008H18.3528C16.8528 7.008 16.5624 7.728 16.5624 8.772V11.0856H20.16L19.68 14.7192H16.56V24H22.6752C23.0266 24 23.3635 23.8604 23.612 23.612C23.8604 23.3635 24 23.0266 24 22.6752V1.3152C23.9975 0.965507 23.8568 0.631 23.6086 0.384625C23.3604 0.138249 23.0249 -9.18108e-06 22.6752 4.57271e-10V4.5727e-10Z" fill="black"/>
</svg>
