<svg width="24" height="24" viewBox="0 0 24 24" fill="none" xmlns="http://www.w3.org/2000/svg">
<path d="M11.9995 2.16203C15.2037 2.16203 15.5829 2.17441 16.8485 2.23205C18.0183 2.2854 18.6538 2.48069 19.0767 2.64502C19.6369 2.8627 20.0365 3.12277 20.4566 3.54241C20.8768 3.96253 21.1368 4.36216 21.354 4.92232C21.5184 5.34529 21.7137 5.98071 21.767 7.15055C21.8246 8.41567 21.837 8.7953 21.837 11.9995C21.837 15.2037 21.8246 15.5829 21.767 16.8485C21.7137 18.0183 21.5184 18.6537 21.354 19.0767C21.1363 19.6369 20.8763 20.0365 20.4566 20.4566C20.0365 20.8767 19.6369 21.1368 19.0767 21.354C18.6538 21.5183 18.0183 21.7136 16.8485 21.767C15.5834 21.8246 15.2037 21.837 11.9995 21.837C8.7953 21.837 8.41567 21.8246 7.15056 21.767C5.98071 21.7136 5.34529 21.5183 4.92232 21.354C4.36216 21.1363 3.96253 20.8763 3.54241 20.4566C3.1223 20.0365 2.86222 19.6369 2.64502 19.0767C2.48069 18.6537 2.2854 18.0183 2.23205 16.8485C2.17441 15.5834 2.16203 15.2037 2.16203 11.9995C2.16203 8.7953 2.17441 8.41614 2.23205 7.15055C2.2854 5.98071 2.48069 5.34529 2.64502 4.92232C2.8627 4.36216 3.12277 3.96253 3.54241 3.54241C3.96253 3.12229 4.36216 2.86222 4.92232 2.64502C5.34529 2.48069 5.98071 2.2854 7.15056 2.23205C8.41615 2.17441 8.7953 2.16203 11.9995 2.16203ZM11.9995 0C8.74052 0 8.33184 0.0138134 7.05196 0.072401C5.77494 0.130512 4.90279 0.333426 4.13925 0.630175C3.34998 0.936926 2.68074 1.34704 2.01389 2.01437C1.34704 2.68122 0.936451 3.35045 0.630175 4.13924C0.333426 4.90279 0.130512 5.77493 0.0724011 7.05196C0.0138134 8.33183 0 8.74052 0 11.9995C0 15.2585 0.0138134 15.6672 0.0724011 16.9471C0.130512 18.2241 0.333426 19.0962 0.630175 19.8598C0.936927 20.6491 1.34704 21.3183 2.01437 21.9851C2.6817 22.6525 3.35045 23.0626 4.13972 23.3693C4.90279 23.6661 5.77541 23.869 7.05244 23.9271C8.33231 23.9857 8.741 23.9995 12 23.9995C15.259 23.9995 15.6677 23.9857 16.9476 23.9271C18.2246 23.869 19.0972 23.6661 19.8603 23.3693C20.6495 23.0626 21.3188 22.6525 21.9856 21.9851C22.653 21.3178 23.0631 20.6491 23.3698 19.8598C23.6666 19.0967 23.8695 18.2241 23.9276 16.9471C23.9862 15.6672 24 15.2585 24 11.9995C24 8.74052 23.9862 8.33183 23.9276 7.05196C23.8695 5.77493 23.6666 4.90231 23.3698 4.13924C23.0631 3.34998 22.653 2.68074 21.9856 2.01389C21.3183 1.34656 20.6495 0.93645 19.8603 0.629698C19.0963 0.333426 18.2241 0.130512 16.9471 0.072401C15.6672 0.0138134 15.2585 0 11.9995 0Z" fill="black"/>
<path d="M11.9997 5.83777C8.5964 5.83777 5.83801 8.59663 5.83801 11.9995C5.83801 15.4023 8.59687 18.1612 11.9997 18.1612C15.4026 18.1612 18.1614 15.4023 18.1614 11.9995C18.1614 8.59663 15.4031 5.83777 11.9997 5.83777ZM11.9997 15.9992C9.79054 15.9992 8.00004 14.2082 8.00004 11.9995C8.00004 9.7903 9.79102 7.9998 11.9997 7.9998C14.2084 7.9998 15.9994 9.79077 15.9994 11.9995C15.9994 14.2087 14.2089 15.9992 11.9997 15.9992Z" fill="black"/>
<path d="M18.4044 7.0339C19.1996 7.0339 19.8443 6.38922 19.8443 5.59397C19.8443 4.79873 19.1996 4.15405 18.4044 4.15405C17.6092 4.15405 16.9645 4.79873 16.9645 5.59397C16.9645 6.38922 17.6092 7.0339 18.4044 7.0339Z" fill="black"/>
</svg>
