<svg width="19" height="19" viewBox="0 0 19 19" fill="none" xmlns="http://www.w3.org/2000/svg">
<path d="M2.35033 0.0982673C3.58623 0.0992738 4.60554 1.12006 4.60288 2.36212C4.59992 3.66268 3.52063 4.64291 2.33511 4.61467C1.13267 4.63901 0.0759351 3.63468 0.0761719 2.35354C0.0761719 1.111 1.09945 0.0973199 2.35033 0.0982673Z" fill="black"/>
<path d="M3.66278 18.883H1.01482C0.671164 18.883 0.392578 18.6044 0.392578 18.2607V6.96441C0.392578 6.62075 0.671164 6.34216 1.01482 6.34216H3.66278C4.00643 6.34216 4.28502 6.62075 4.28502 6.96441V18.2608C4.28496 18.6044 4.00643 18.883 3.66278 18.883Z" fill="black"/>
<path d="M18.9082 10.31C18.9082 7.94182 16.9884 6.02197 14.6202 6.02197H13.9411C12.6454 6.02197 11.5008 6.66843 10.8123 7.65654C10.7372 7.76424 10.6677 7.87609 10.6038 7.99155C10.5818 7.98824 10.5687 7.98652 10.5684 7.98711V6.60052C10.5684 6.45788 10.4527 6.34218 10.31 6.34218H7.00638C6.86374 6.34218 6.74805 6.45782 6.74805 6.60052V18.6248C6.74805 18.7675 6.86363 18.8831 7.00626 18.8832L10.3819 18.884C10.5246 18.884 10.6403 18.7683 10.6403 18.6256V11.6789C10.6403 10.4781 11.598 9.48105 12.7988 9.46749C13.4117 9.46057 13.9674 9.70617 14.3679 10.1069C14.7631 10.5019 15.0075 11.0481 15.0075 11.6511V18.6265C15.0075 18.7692 15.1231 18.8848 15.2657 18.8849L18.6497 18.8857C18.7924 18.8858 18.9081 18.7701 18.9081 18.6274V10.31H18.9082Z" fill="black"/>
</svg>
