<svg width="21" height="17" viewBox="0 0 21 17" fill="none" xmlns="http://www.w3.org/2000/svg">
<path d="M0.574245 15.1565C2.3701 16.3043 4.50038 16.9685 6.78395 16.9685C13.1994 16.9685 18.3999 11.7273 18.3999 5.26314C18.3999 5.10175 18.3965 4.94154 18.3903 4.78181C18.6224 4.5978 20.0575 3.43866 20.4093 2.69349C20.4093 2.69349 19.2439 3.18156 18.1032 3.29654C18.101 3.29654 18.0982 3.29708 18.0959 3.29708C18.0959 3.29708 18.0982 3.29594 18.1021 3.29314C18.2072 3.22237 19.6766 2.21443 19.8755 1.01346C19.8755 1.01346 19.0512 1.45684 17.897 1.84474C17.7059 1.9087 17.5059 1.97159 17.2997 2.02988C16.5557 1.22975 15.4982 0.730347 14.3244 0.730347C12.0728 0.730347 10.2482 2.56837 10.2482 4.83557C10.2482 5.15551 10.2848 5.46691 10.3539 5.76589C10.0392 5.75289 5.24773 5.48218 1.98807 1.50434C1.98807 1.50434 0.0399293 4.18438 3.14901 6.94025C3.14901 6.94025 2.2039 6.9023 1.38851 6.41136C1.38851 6.41136 1.08902 9.65817 4.60998 10.4883C4.60998 10.4883 3.91715 10.7528 2.81187 10.5642C2.81187 10.5642 3.42997 13.1876 6.55818 13.4328C6.55818 13.4328 4.08454 15.6846 0.57312 15.1563L0.574245 15.1565Z" fill="black"/>
</svg>
